<svg version="1.1" id="Layer_1" xmlns="http://www.w3.org/2000/svg" xmlns:xlink="http://www.w3.org/1999/xlink" x="0px" y="0px"
	 width="100%" viewBox="0 0 514 115" enable-background="new 0 0 514 115" xml:space="preserve">
<path fill="none" opacity="1.000000" stroke="#000000" stroke-linecap="round" stroke-linejoin="round" stroke-width="3.000000"
	d="
M303.000000,56.000000 
	C300.166656,52.786201 297.273682,53.894455 294.519592,56.025307 
	C292.452332,57.624767 291.224792,59.565247 293.479309,62.076344 
	C296.018646,61.238617 297.989136,59.675514 300.051422,58.065876 
	C305.054718,54.160702 307.213806,55.115044 309.025513,61.492756 
	C309.368591,62.700584 310.042511,63.814442 310.561768,64.967209 
	C297.613647,72.470055 288.101776,82.748131 282.848663,96.943993 
	C281.737030,99.948090 282.036652,102.704803 282.129913,105.495659 
	C282.232330,108.559532 285.522369,109.773598 288.999207,108.497810 
	C293.614594,106.804222 296.905090,103.590393 299.512909,99.508247 
	C305.948059,89.434967 309.963684,78.650612 309.500000,66.500000 
"/>
<path fill="none" opacity="1.000000" stroke="#000000" stroke-linecap="round" stroke-linejoin="round" stroke-width="3.000000"
	d="
M192.500000,56.500000 
	C182.766724,63.249073 173.325974,70.196907 168.847397,81.941811 
	C168.232162,83.555244 168.055405,84.982033 168.038391,86.500427 
	C167.984451,91.312302 170.511139,93.071022 175.000000,91.500000 
	C183.472717,88.534691 188.149979,79.433334 185.856201,69.533318 
	C185.482758,67.921577 185.724503,65.743538 184.000000,64.500000 
"/>
<path fill="none" opacity="1.000000" stroke="#000000" stroke-linecap="round" stroke-linejoin="round" stroke-width="3.000000"
	d="
M215.499985,29.999998 
	C214.166656,37.666664 212.708725,45.314194 211.527573,53.004238 
	C209.466202,66.425049 207.925461,79.889320 209.500000,93.500000 
"/>
<path fill="none" opacity="1.000000" stroke="#000000" stroke-linecap="round" stroke-linejoin="round" stroke-width="2.000000"
	d="
M171.500000,56.500000 
	C163.510559,61.239929 154.947372,64.542976 146.017731,67.062836 
	C142.018997,68.191254 140.489029,66.549759 140.559769,63.001190 
	C140.642456,58.853630 138.867752,58.959190 135.992889,60.486614 
	C133.423996,61.851471 130.794632,63.102451 128.335709,64.331802 
	C125.237915,61.500000 128.689423,59.000000 128.000000,56.500000 
"/>
<path fill="none" opacity="1.000000" stroke="#000000" stroke-linecap="round" stroke-linejoin="round" stroke-width="3.000000"
	d="
M36.500000,67.000000 
	C38.117947,75.836998 34.603745,83.657951 31.452452,91.480843 
	C28.699303,98.315384 24.450853,104.162872 17.957047,107.925873 
	C15.898586,109.118706 13.333333,109.999199 11.000000,108.000000 
"/>
<path fill="none" opacity="1.000000" stroke="#000000" stroke-linecap="round" stroke-linejoin="round" stroke-width="2.000000"
	d="
M444.000000,72.500000 
	C443.608887,69.080299 446.744049,67.543159 448.065765,65.034660 
	C450.327393,60.742393 452.905701,56.605724 455.541931,52.527111 
	C456.759857,50.642845 457.861481,48.420151 461.098572,48.250946 
	C464.308960,53.898827 458.443970,60.066372 460.752258,66.241135 
	C465.716705,63.115185 467.904938,57.472065 473.336426,54.780624 
	C475.657562,60.914024 470.586853,66.607246 472.543304,73.122055 
	C484.980896,70.220993 494.956940,62.775768 505.500000,56.500000 
"/>
<path fill="none" opacity="1.000000" stroke="#000000" stroke-linecap="round" stroke-linejoin="round" stroke-width="3.000000"
	d="
M65.500000,56.500000 
	C54.862186,57.919891 44.596958,60.699566 35.540558,66.562645 
	C23.204807,74.548767 13.742090,85.006027 9.485131,99.495628 
	C8.721352,102.095337 8.589726,104.582909 10.000000,107.000000 
"/>
<path fill="none" opacity="1.000000" stroke="#000000" stroke-linecap="round" stroke-linejoin="round" stroke-width="2.000000"
	d="
M436.500000,56.500000 
	C426.638947,61.412392 416.918060,66.552208 406.021027,69.090271 
	C398.351959,70.876503 396.628601,70.014046 396.490845,61.965511 
	C391.550781,61.933933 388.035797,66.899933 382.709656,66.269318 
	C384.307983,60.701385 388.038391,57.907734 393.010071,56.536514 
	C394.612976,56.094425 396.010162,56.648861 396.500000,58.500000 
"/>
<path fill="none" opacity="1.000000" stroke="#000000" stroke-linecap="round" stroke-linejoin="round" stroke-width="2.000000"
	d="
M281.500000,58.500000 
	C272.831268,62.415405 264.383057,66.795464 255.017746,69.072945 
	C247.080505,71.003143 245.535461,70.285194 244.452957,62.146317 
	C239.886276,61.098019 236.976349,68.215065 231.578888,64.991234 
	C234.125916,59.856636 237.779785,56.780499 243.500000,56.500000 
"/>
<path fill="none" opacity="1.000000" stroke="#000000" stroke-linecap="round" stroke-linejoin="round" stroke-width="3.000000"
	d="
M115.500000,58.500000 
	C106.831261,62.415405 98.384956,66.802444 89.017403,69.071823 
	C81.281654,70.945854 79.508995,70.086250 78.452957,62.146317 
	C73.886269,61.098019 70.976349,68.215065 65.578896,64.991234 
	C68.125923,59.856636 71.779785,56.780499 77.500000,56.500000 
"/>
<path fill="none" opacity="1.000000" stroke="#000000" stroke-linecap="round" stroke-linejoin="round" stroke-width="3.000000"
	d="
M381.500000,56.500000 
	C373.478424,65.019341 362.893677,68.354965 351.988434,70.951378 
	C349.690918,71.498398 348.559692,69.214615 348.912903,66.488716 
	C349.232880,64.019524 351.172577,62.361244 351.510529,59.924088 
	C351.360107,59.651867 351.263763,59.181709 350.987549,59.021412 
	C345.996429,56.124840 345.992523,56.133373 349.496552,51.497391 
	C349.606995,51.351238 349.666656,51.166660 349.750000,51.000000 
	C349.833313,51.083340 349.916656,51.166672 350.000000,51.250008 
"/>
<path fill="none" opacity="1.000000" stroke="#000000" stroke-linecap="round" stroke-linejoin="round" stroke-width="2.000000"
	d="
M338.500000,56.500000 
	C328.776855,57.532925 319.614380,60.379894 311.000000,65.000000 
"/>
<path fill="none" opacity="1.000000" stroke="#000000" stroke-linecap="round" stroke-linejoin="round" stroke-width="3.000000"
	d="
M30.000000,55.500000 
	C26.107279,53.683830 22.614061,54.235386 20.499996,56.999996 
	C19.669037,58.086658 20.086004,60.171478 21.568878,62.089069 
	C24.239166,61.596977 25.793777,59.255558 27.937111,57.900524 
	C32.886906,54.771217 35.833473,55.749298 36.990559,61.501900 
	C37.222580,62.655422 37.333336,63.833332 37.500000,65.000000 
"/>
<path fill="none" opacity="1.000000" stroke="#000000" stroke-linecap="round" stroke-linejoin="round" stroke-width="3.000000"
	d="
M185.500000,42.500000 
	C179.599335,45.799850 178.953812,47.542530 180.981354,54.005852 
	C181.904953,56.950031 182.221710,60.124393 184.500000,62.500000 
"/>
<path fill="none" opacity="1.000000" stroke="#000000" stroke-linecap="round" stroke-linejoin="round" stroke-width="3.000000"
	d="
M222.000000,12.500000 
	C219.001389,17.432770 217.419647,22.852589 216.500000,28.500000 
"/>
<path fill="none" opacity="1.000000" stroke="#000000" stroke-linecap="round" stroke-linejoin="round" stroke-width="3.000000"
	d="
M445.500000,58.500000 
	C445.221436,61.672432 443.827332,64.727440 444.500000,68.000000 
"/>
</svg>